<svg width="25" height="23" viewBox="0 0 25 23" fill="none" xmlns="http://www.w3.org/2000/svg">
<path d="M9.85003 1.89798L7.56505 4.26499M17.8475 19.6506V22.0176M0.710114 11.366H23.5599M6.42256 19.6506V22.0176M8.70754 3.08149L7.13205 1.44943C6.80165 1.10558 6.38215 0.868285 5.9243 0.76624C5.46644 0.664196 4.98985 0.701778 4.55218 0.874441C4.11451 1.0471 3.73452 1.34745 3.45818 1.73914C3.18184 2.13083 3.02099 2.59708 2.99509 3.08149V17.2836C2.99509 17.9113 3.23583 18.5134 3.66435 18.9573C4.09286 19.4012 4.67406 19.6506 5.28007 19.6506H18.9899C19.596 19.6506 20.1771 19.4012 20.6057 18.9573C21.0342 18.5134 21.2749 17.9113 21.2749 17.2836V11.366" stroke="#969696" stroke-width="1.42021" stroke-linecap="round" stroke-linejoin="round"/>
</svg>
