<svg width="26" height="21" viewBox="0 0 26 21" fill="none" xmlns="http://www.w3.org/2000/svg">
<path d="M0.710098 19.6462V10.1781C0.710098 9.55037 0.96413 8.94831 1.41631 8.50441C1.86849 8.06051 2.48178 7.81113 3.12126 7.81113M3.12126 7.81113H22.4105M3.12126 7.81113V3.0771C3.12126 2.44933 3.37529 1.84727 3.82747 1.40337C4.27965 0.959464 4.89294 0.710083 5.53242 0.710083H19.9994C20.6389 0.710083 21.2521 0.959464 21.7043 1.40337C22.1565 1.84727 22.4105 2.44933 22.4105 3.0771V7.81113M22.4105 7.81113C23.05 7.81113 23.6633 8.06051 24.1155 8.50441C24.5677 8.94831 24.8217 9.55037 24.8217 10.1781V19.6462M12.7659 0.710083V7.81113M0.710098 17.2792H24.8217" stroke="#969696" stroke-width="1.42021" stroke-linecap="round" stroke-linejoin="round"/>
</svg>
