<svg width="19" height="19" viewBox="0 0 19 19" fill="none" xmlns="http://www.w3.org/2000/svg">
<path d="M17.8788 17.606C18.2694 17.2155 18.2694 16.5823 17.8788 16.1918L11.48 9.79292C11.0894 9.4024 11.0894 8.76923 11.48 8.37871L17.8788 1.97984C18.2694 1.58931 18.2694 0.956149 17.8788 0.565625L17.6061 0.292922C17.2156 -0.0976019 16.5824 -0.097602 16.1919 0.292922L9.79304 6.69179C9.40252 7.08232 8.76935 7.08232 8.37883 6.69179L1.97996 0.292922C1.58944 -0.0976024 0.956271 -0.0976022 0.565747 0.292922L0.293044 0.565624C-0.0974798 0.956149 -0.0974799 1.58931 0.293044 1.97984L6.69192 8.37871C7.08244 8.76923 7.08244 9.4024 6.69191 9.79292L0.293044 16.1918C-0.0974804 16.5823 -0.0974801 17.2155 0.293044 17.606L0.565746 17.8787C0.956271 18.2692 1.58944 18.2692 1.97996 17.8787L8.37883 11.4798C8.76935 11.0893 9.40252 11.0893 9.79304 11.4798L16.1919 17.8787C16.5824 18.2692 17.2156 18.2692 17.6061 17.8787L17.8788 17.606Z" fill="#CED0D2"/>
</svg>
