<svg width="36" height="35" viewBox="0 0 36 35" fill="none" xmlns="http://www.w3.org/2000/svg">
<g clip-path="url(#clip0_73_844)">
<path d="M2.88894 6.44445H5.68185C5.87566 7.20693 6.31805 7.88307 6.9391 8.36601C7.56015 8.84894 8.32444 9.11113 9.11116 9.11113C9.89788 9.11113 10.6622 8.84894 11.2832 8.36601C11.9043 7.88307 12.3467 7.20693 12.5405 6.44445H33.1112C33.2281 6.44484 33.344 6.42214 33.4522 6.37765C33.5604 6.33315 33.6588 6.26774 33.7416 6.18516C33.8245 6.10258 33.8902 6.00446 33.9351 5.89642C33.9799 5.78838 34.003 5.67255 34.003 5.55557C34.003 5.43858 33.9799 5.32275 33.9351 5.21471C33.8902 5.10667 33.8245 5.00855 33.7416 4.92597C33.6588 4.84339 33.5604 4.77798 33.4522 4.73349C33.344 4.68899 33.2281 4.66629 33.1112 4.66668H12.5405C12.3467 3.9042 11.9043 3.22806 11.2832 2.74513C10.6622 2.26219 9.89788 2 9.11116 2C8.32444 2 7.56015 2.26219 6.9391 2.74513C6.31805 3.22806 5.87566 3.9042 5.68185 4.66668H2.88894C2.77196 4.66629 2.65605 4.68899 2.54786 4.73349C2.43967 4.77798 2.34133 4.84339 2.25848 4.92597C2.17562 5.00855 2.10988 5.10667 2.06502 5.21471C2.02016 5.32275 1.99707 5.43858 1.99707 5.55557C1.99707 5.67255 2.02016 5.78838 2.06502 5.89642C2.10988 6.00446 2.17562 6.10258 2.25848 6.18516C2.34133 6.26774 2.43967 6.33315 2.54786 6.37765C2.65605 6.42214 2.77196 6.44484 2.88894 6.44445ZM9.11116 3.77779C9.46277 3.77779 9.80649 3.88206 10.0988 4.0774C10.3912 4.27275 10.6191 4.5504 10.7536 4.87524C10.8882 5.20009 10.9234 5.55754 10.8548 5.9024C10.7862 6.24725 10.6169 6.56402 10.3682 6.81265C10.1196 7.06128 9.80284 7.2306 9.45799 7.29919C9.11313 7.36779 8.75568 7.33258 8.43083 7.19803C8.10599 7.06347 7.82834 6.83561 7.63299 6.54325C7.43765 6.2509 7.33338 5.90718 7.33338 5.55557C7.33385 5.08422 7.5213 4.6323 7.8546 4.29901C8.18789 3.96571 8.63981 3.77826 9.11116 3.77779Z" fill="#3FA9DB"/>
<path d="M33.1111 17.1111H30.3182C30.1244 16.3487 29.682 15.6725 29.0609 15.1896C28.4399 14.7066 27.6756 14.4445 26.8889 14.4445C26.1022 14.4445 25.3379 14.7066 24.7168 15.1896C24.0958 15.6725 23.6534 16.3487 23.4596 17.1111H2.88889C2.65314 17.1111 2.42705 17.2048 2.26035 17.3715C2.09365 17.5382 2 17.7643 2 18C2 18.2358 2.09365 18.4619 2.26035 18.6286C2.42705 18.7953 2.65314 18.8889 2.88889 18.8889H23.4596C23.6534 19.6514 24.0958 20.3275 24.7168 20.8105C25.3379 21.2934 26.1022 21.5556 26.8889 21.5556C27.6756 21.5556 28.4399 21.2934 29.0609 20.8105C29.682 20.3275 30.1244 19.6514 30.3182 18.8889H33.1111C33.3469 18.8889 33.573 18.7953 33.7397 18.6286C33.9063 18.4619 34 18.2358 34 18C34 17.7643 33.9063 17.5382 33.7397 17.3715C33.573 17.2048 33.3469 17.1111 33.1111 17.1111ZM26.8889 19.7778C26.5373 19.7778 26.1936 19.6735 25.9012 19.4782C25.6089 19.2829 25.381 19.0052 25.2464 18.6804C25.1119 18.3555 25.0767 17.9981 25.1453 17.6532C25.2139 17.3083 25.3832 16.9916 25.6318 16.7429C25.8804 16.4943 26.1972 16.325 26.5421 16.2564C26.8869 16.1878 27.2444 16.223 27.5692 16.3576C27.8941 16.4921 28.1717 16.72 28.3671 17.0123C28.5624 17.3047 28.6667 17.6484 28.6667 18C28.6662 18.4714 28.4788 18.9233 28.1455 19.2566C27.8122 19.5899 27.3602 19.7773 26.8889 19.7778Z" fill="#3FA9DB"/>
<path d="M33.1112 29.5555H12.5405C12.3467 28.7931 11.9043 28.1169 11.2832 27.634C10.6622 27.151 9.89788 26.8889 9.11116 26.8889C8.32444 26.8889 7.56015 27.151 6.9391 27.634C6.31805 28.1169 5.87566 28.7931 5.68185 29.5555H2.88894C2.77196 29.5551 2.65605 29.5778 2.54786 29.6223C2.43967 29.6668 2.34133 29.7322 2.25848 29.8148C2.17562 29.8974 2.10988 29.9955 2.06502 30.1036C2.02016 30.2116 1.99707 30.3274 1.99707 30.4444C1.99707 30.5614 2.02016 30.6772 2.06502 30.7853C2.10988 30.8933 2.17562 30.9914 2.25848 31.074C2.34133 31.1566 2.43967 31.222 2.54786 31.2665C2.65605 31.311 2.77196 31.3337 2.88894 31.3333H5.68185C5.87566 32.0958 6.31805 32.7719 6.9391 33.2549C7.56015 33.7378 8.32444 34 9.11116 34C9.89788 34 10.6622 33.7378 11.2832 33.2549C11.9043 32.7719 12.3467 32.0958 12.5405 31.3333H33.1112C33.2281 31.3337 33.344 31.311 33.4522 31.2665C33.5604 31.222 33.6588 31.1566 33.7416 31.074C33.8245 30.9914 33.8902 30.8933 33.9351 30.7853C33.9799 30.6772 34.003 30.5614 34.003 30.4444C34.003 30.3274 33.9799 30.2116 33.9351 30.1036C33.8902 29.9955 33.8245 29.8974 33.7416 29.8148C33.6588 29.7322 33.5604 29.6668 33.4522 29.6223C33.344 29.5778 33.2281 29.5551 33.1112 29.5555ZM9.11116 32.2222C8.75955 32.2222 8.41583 32.1179 8.12348 31.9226C7.83113 31.7272 7.60326 31.4496 7.46871 31.1247C7.33415 30.7999 7.29895 30.4424 7.36754 30.0976C7.43614 29.7527 7.60545 29.436 7.85408 29.1873C8.10271 28.9387 8.41948 28.7694 8.76433 28.7008C9.10919 28.6322 9.46664 28.6674 9.79149 28.802C10.1163 28.9365 10.394 29.1644 10.5893 29.4567C10.7847 29.7491 10.8889 30.0928 10.8889 30.4444C10.8885 30.9158 10.701 31.3677 10.3677 31.701C10.0344 32.0343 9.58251 32.2217 9.11116 32.2222Z" fill="#3FA9DB"/>
</g>
<defs>
<clipPath id="clip0_73_844">
<rect width="36" height="35" fill="white"/>
</clipPath>
</defs>
</svg>
