<svg width="62" height="47" viewBox="0 0 62 47" fill="none" xmlns="http://www.w3.org/2000/svg">
<rect width="62" height="47" rx="23.5" fill="#3FA9DB"/>
<path d="M40.7548 15.9248H37.0965V15.195C37.0965 13.985 36.1115 13 34.9015 13C33.6915 13 32.7065 13.985 32.7065 15.195V15.9248H21.7317C21.3274 15.9248 21 16.2522 21 16.6565C21 17.0607 21.3274 17.3881 21.7317 17.3881H32.7065V18.1216C32.7065 19.3316 33.6915 20.3166 34.9015 20.3166C36.1115 20.3166 37.0965 19.3316 37.0965 18.1216V17.3881H40.7548C41.159 17.3881 41.4864 17.0607 41.4864 16.6565C41.4864 16.2522 41.159 15.9248 40.7548 15.9248ZM35.6332 18.1216C35.6332 18.5249 35.3048 18.8533 34.9015 18.8533C34.4982 18.8533 34.1698 18.5249 34.1698 18.1216V15.195C34.1698 14.7916 34.4982 14.4633 34.9015 14.4633C35.3048 14.4633 35.6332 14.7916 35.6332 15.195V18.1216Z" fill="white"/>
<path d="M40.7548 22.2683H29.7799V21.5385C29.7799 20.3285 28.7949 19.3435 27.5849 19.3435C26.3749 19.3435 25.3899 20.3285 25.3899 21.5385V22.2683H21.7317C21.3274 22.2683 21 22.5957 21 23C21 23.4042 21.3274 23.7316 21.7317 23.7316H25.3899V24.4651C25.3899 25.6751 26.3749 26.6601 27.5849 26.6601C28.7949 26.6601 29.7799 25.6751 29.7799 24.4651V23.7316H40.7548C41.159 23.7316 41.4864 23.4042 41.4864 23C41.4864 22.5957 41.159 22.2683 40.7548 22.2683ZM28.3166 24.4651C28.3166 24.8684 27.9883 25.1968 27.5849 25.1968C27.1816 25.1968 26.8533 24.8684 26.8533 24.4651V21.5385C26.8533 21.1351 27.1816 20.8068 27.5849 20.8068C27.9883 20.8068 28.3166 21.1351 28.3166 21.5385V24.4651Z" fill="white"/>
<path d="M40.7548 28.6119H37.4624V27.8784C37.4624 26.6684 36.4774 25.6834 35.2674 25.6834C34.0575 25.6834 33.0725 26.6684 33.0725 27.8784V28.6119H21.7317C21.3274 28.6119 21 28.9393 21 29.3435C21 29.7478 21.3274 30.0752 21.7317 30.0752H33.0725V30.805C33.0725 32.015 34.0575 33 35.2674 33C36.4774 33 37.4624 32.015 37.4624 30.805V30.0752H40.7548C41.159 30.0752 41.4864 29.7478 41.4864 29.3435C41.4864 28.9393 41.159 28.6119 40.7548 28.6119ZM35.9991 30.805C35.9991 31.2084 35.6708 31.5367 35.2674 31.5367C34.8641 31.5367 34.5358 31.2084 34.5358 30.805V27.8784C34.5358 27.475 34.8641 27.1467 35.2674 27.1467C35.6708 27.1467 35.9991 27.475 35.9991 27.8784V30.805Z" fill="white"/>
</svg>
