<svg width="238" height="41" viewBox="0 0 238 41" fill="none" xmlns="http://www.w3.org/2000/svg">
<g clip-path="url(#clip0_8_758)">
<path d="M70.4088 9.2251L77.7821 27.6751L85.1554 9.2251H91.0782L81.227 32.5589H74.3977L64.486 9.2251H70.4088Z" fill="white"/>
<path d="M99.1163 28.0366C99.1163 26.5896 99.5998 25.5043 100.567 24.7205C101.534 23.9366 103.045 23.5749 105.1 23.5749H112.171V22.1881C112.171 20.5602 110.781 19.7161 108.061 19.7161C105.402 19.7161 104.012 20.319 103.891 21.5249H99.5998C99.6602 19.7764 100.446 18.5102 101.896 17.6058C103.347 16.7014 105.462 16.2793 108.242 16.2793C109.511 16.2793 110.66 16.3999 111.687 16.6411C112.715 16.8822 113.621 17.244 114.346 17.6661C115.072 18.0881 115.676 18.6308 116.039 19.2337C116.462 19.8366 116.643 20.4999 116.643 21.2234V32.4381H113.077L112.352 30.3881C111.627 31.1117 110.66 31.7146 109.451 32.1366C108.242 32.5587 106.973 32.7396 105.523 32.7396C103.347 32.7396 101.776 32.3175 100.688 31.4734C99.6602 30.6293 99.1163 29.4837 99.1163 28.0366ZM112.171 25.9866H106.308C105.402 25.9866 104.737 26.1675 104.314 26.469C103.891 26.7705 103.71 27.2528 103.71 27.7955C103.71 28.3984 103.951 28.8205 104.435 29.1219C104.918 29.4234 105.643 29.6043 106.671 29.6043C107.275 29.6043 107.88 29.544 108.484 29.4234C109.088 29.3028 109.632 29.1822 110.116 28.9411C110.599 28.7602 111.083 28.519 111.445 28.2175C111.808 27.9161 112.05 27.6146 112.231 27.2528V25.9866H112.171Z" fill="white"/>
<path d="M197.628 28.2178C197.628 26.7707 198.112 25.6854 199.079 24.9016C200.046 24.1178 201.557 23.756 203.611 23.756H210.683V22.3693C210.683 20.7413 209.293 19.8972 206.573 19.8972C203.914 19.8972 202.524 20.5002 202.403 21.706H198.112C198.172 19.9575 198.958 18.6913 200.408 17.7869C201.859 16.8825 203.974 16.4604 206.754 16.4604C208.023 16.4604 209.172 16.581 210.199 16.8222C211.227 17.0634 212.133 17.4252 212.858 17.8472C213.584 18.2693 214.188 18.8119 214.551 19.4149C214.974 20.0178 215.155 20.681 215.155 21.4046V32.6193H211.589L210.864 30.5693C210.139 31.2928 209.172 31.8957 207.963 32.3178C206.754 32.7399 205.485 32.9207 204.035 32.9207C201.859 32.9207 200.287 32.4987 199.2 31.6546C198.172 30.8104 197.628 29.6649 197.628 28.2178ZM210.683 26.1678H204.82C203.914 26.1678 203.249 26.3487 202.826 26.6502C202.403 26.9516 202.221 27.434 202.221 27.9766C202.221 28.5796 202.463 29.0016 202.947 29.3031C203.43 29.6046 204.155 29.7854 205.183 29.7854C205.787 29.7854 206.392 29.7252 206.996 29.6046C207.6 29.484 208.144 29.3634 208.628 29.1222C209.111 28.9413 209.595 28.7002 209.957 28.3987C210.32 28.0972 210.562 27.7957 210.743 27.434V26.1678H210.683Z" fill="white"/>
<path d="M92.2265 11.2749H96.4571V15.0131H92.2265V11.2749ZM92.2265 17.1837H96.4571V32.4984H92.2265V17.1837Z" fill="white"/>
<path d="M119.907 10.7925H124.137V18.5101C125.829 17.0631 127.824 16.3395 130.785 16.3395C136.043 16.3395 139.79 19.294 139.79 24.3587C139.79 29.1822 136.285 32.3778 130.785 32.3778C127.824 32.3778 125.588 31.6542 124.016 30.1469L123.412 32.016H119.967V10.7925H119.907ZM129.758 29.0616C133.626 29.0616 135.499 27.0116 135.499 24.3587C135.499 21.6454 133.565 19.5954 129.758 19.5954C126.071 19.5954 124.016 21.6454 124.016 24.3587C124.016 27.0719 126.011 29.0616 129.758 29.0616Z" fill="white"/>
<path d="M152.119 15.4351C159.311 15.4351 162.152 19.3542 162.152 23.9365C162.152 28.4586 159.251 32.3777 152.119 32.3777C144.988 32.3777 142.087 28.4586 142.087 23.9365C142.087 19.3542 144.927 15.4351 152.119 15.4351ZM152.119 28.8806C156.652 28.8806 157.921 26.2277 157.921 23.8762C157.921 21.6454 156.713 18.8718 152.119 18.8718C147.587 18.8718 146.317 21.6454 146.317 23.8762C146.317 26.2277 147.587 28.8806 152.119 28.8806Z" fill="white"/>
<path d="M168.196 26.7102C168.316 28.0969 169.223 29.1219 172.789 29.1219C176.234 29.1219 177.321 28.3381 177.321 27.4337C177.321 26.4087 175.871 26.1072 173.997 25.8661L170.069 25.3234C167.108 24.9616 164.328 23.8161 164.328 20.9219C164.328 18.3896 166.443 16.2793 172.607 16.2793C178.772 16.2793 181.008 18.4499 181.129 21.4043H177.08C176.959 20.2587 176.052 19.5352 172.849 19.5352C169.344 19.5352 168.679 20.3793 168.679 20.9219C168.679 21.8867 170.311 22.1278 172.426 22.4293L175.69 22.9117C178.772 23.3337 181.733 24.419 181.733 27.3734C181.733 30.2675 179.135 32.3175 173.091 32.3175C166.987 32.3175 164.328 30.4484 164.207 26.6499H168.196V26.7102Z" fill="white"/>
<path d="M186.085 20.1381H183.546V16.641H186.085V12.541H190.315V16.641H195.513V20.1381H190.315V26.8307C190.315 27.9763 190.799 28.4587 191.947 28.4587H195.573V31.9557H190.074C187.475 31.9557 186.085 30.8101 186.085 27.7954V20.1381Z" fill="white"/>
<path d="M233.89 30.0866C232.319 31.5337 230.385 32.3175 227.182 32.3175C221.803 32.3175 218.177 29.2425 218.177 24.2984C218.177 19.2337 221.924 16.2792 227.242 16.2792C230.143 16.2792 232.379 17.1837 233.769 18.4498V10.7925H238V32.016H233.89V30.0866ZM228.149 29.0616C231.835 29.0616 233.89 27.0116 233.89 24.3587C233.89 21.6454 231.835 19.5954 228.149 19.5954C224.341 19.5954 222.407 21.6454 222.407 24.3587C222.407 27.0719 224.281 29.0616 228.149 29.0616Z" fill="white"/>
<path d="M151.696 23.4542V20.9219C151.696 20.9219 149.4 21.0425 149.098 23.4542H151.696Z" fill="#E35336"/>
<path d="M152.542 23.4542V20.9219C152.542 20.9219 154.839 21.0425 155.141 23.4542H152.542Z" fill="#E35336"/>
<path d="M152.542 24.2983V26.8307C152.542 26.8307 154.839 26.7101 155.141 24.2983H152.542Z" fill="#E35336"/>
<path d="M151.696 24.2983V26.8307C151.696 26.8307 149.4 26.7101 149.098 24.2983H151.696Z" fill="#E35336"/>
<path fill-rule="evenodd" clip-rule="evenodd" d="M152.119 8.13965L140.697 18.0279L152.119 11.5161L163.602 18.0279L152.119 8.13965Z" fill="#E35336"/>
<path d="M30.2788 37.9248C41.4596 37.9248 51.9152 39.0704 60.5576 41.0601C51.9152 37.0807 41.5201 34.7896 30.2788 34.7896C19.0376 34.7896 8.64246 37.0807 0 40.9998C8.64246 39.0704 19.0376 37.9248 30.2788 37.9248Z" fill="#E35336"/>
<path d="M31.3667 29.1824V32.7397C31.3062 32.7397 31.3062 32.7397 31.3062 32.7397H30.2788C27.6196 32.7397 25.0813 32.8 22.5429 32.9809V30.4485L31.3062 29.1221L31.3667 29.1824Z" fill="white"/>
<path d="M37.4708 30.5086V32.9807C35.4764 32.8601 33.3611 32.7998 31.3062 32.7395C31.2458 32.7395 31.2458 32.7395 31.2458 32.7395V29.1821H31.3062L31.3667 29.2424L37.4708 30.5086Z" fill="white"/>
<path d="M31.3667 22.3691V28.0368L22.5429 29.9662V23.6353L31.3062 22.3691H31.3667Z" fill="white"/>
<path d="M37.5312 23.6353V29.9662L31.3062 28.0368V22.3691H31.3667H31.4271L37.5312 23.6353Z" fill="white"/>
<path d="M31.3667 15.0737V21.284L22.5429 23.2737V16.9428L31.3062 15.0737H31.3667Z" fill="white"/>
<path d="M37.4708 16.9428V23.2737L31.3062 21.284V15.0737L31.3667 15.134L33.7237 15.7973L37.4708 16.9428Z" fill="#2154A5"/>
<path d="M31.3667 7.23535V14.1089L22.5429 16.4604V9.828L31.3062 7.29565L31.3667 7.23535Z" fill="white"/>
<path d="M37.5312 9.88806V16.4601L34.2676 15.2542L31.3062 14.1086V7.29541H31.3667H31.4271L37.5312 9.88806Z" fill="#2154A5"/>
<path d="M31.3667 0V6.33088L22.5429 9.34559V3.67794L31.3062 0H31.3667Z" fill="white"/>
<path d="M37.5312 3.67794V9.34559L31.3667 6.33088V0H31.4271L37.5312 3.67794Z" fill="#2154A5"/>
<path d="M47.6242 30.75V33.9456H47.5637C44.7232 33.5235 41.8223 33.2221 38.8004 33.0412V31.8353L47.5637 30.75H47.6242Z" fill="white"/>
<path d="M53.7887 31.8353V35.0309C51.7943 34.6088 49.7395 34.2471 47.6242 33.9456H47.5638V30.75H47.6242L53.7887 31.8353Z" fill="#2154A5"/>
<path d="M47.6242 25.5649V29.9061L38.8004 31.4135V26.5296L47.5637 25.5649H47.6242Z" fill="white"/>
<path d="M53.7887 26.5296V31.4135L47.5638 29.9061V25.5649H47.6242L53.7887 26.5296Z" fill="#2154A5"/>
<path d="M47.6242 20.0181V24.721L38.8004 26.2284V21.4048L47.5637 20.0181H47.6242Z" fill="white"/>
<path d="M53.7887 21.4048V26.2284L47.5638 24.721V20.0181H47.6242L53.7887 21.4048Z" fill="#2154A5"/>
<path d="M47.6242 13.9883V19.2339L38.8004 21.0427V15.978L47.5637 13.9883H47.6242Z" fill="white"/>
<path d="M53.7887 15.978V21.0427L47.5638 19.2339V13.9883H47.6242L53.7887 15.978Z" fill="#2154A5"/>
<path d="M47.6242 8.44141V13.2649L38.8004 15.6164V11.2752L47.5637 8.44141H47.6242Z" fill="white"/>
<path d="M53.8492 11.2752V15.6164L47.6242 13.2649V8.44141H47.6846L53.8492 11.2752Z" fill="#2154A5"/>
<path d="M15.5322 31.353V33.6442C15.4718 33.6442 15.4718 33.6442 15.4718 33.6442C12.45 34.006 9.48857 34.4883 6.64804 35.031V32.3177L15.4718 31.353H15.5322Z" fill="white"/>
<path d="M21.6968 32.2574V33.0413C19.6419 33.1619 17.5267 33.403 15.5322 33.5839C15.4718 33.5839 15.4718 33.5839 15.4718 33.5839V31.353H15.5322L21.6968 32.2574Z" fill="#2154A5"/>
<path d="M15.5322 26.7104V30.5693L6.70848 31.8957V27.5546L15.4718 26.7104H15.5322Z" fill="white"/>
<path d="M21.6968 27.5546V31.8957L15.4718 30.5693V26.7104H15.5323L21.6968 27.5546Z" fill="#2154A5"/>
<path d="M15.5322 21.7056V25.9262L6.70848 27.3129V22.9717L15.4718 21.7056H15.5322Z" fill="white"/>
<path d="M21.6968 22.9717V27.3129L15.4718 25.9262V21.7056H15.5323L21.6968 22.9717Z" fill="#2154A5"/>
<path d="M15.5322 16.3398V21.0428L6.70848 22.6707V18.1487L15.4718 16.4001L15.5322 16.3398Z" fill="white"/>
<path d="M21.6968 18.1484V22.6705L15.4718 21.0426V16.3999H15.5323L18.4332 17.1837L21.6968 18.1484Z" fill="#2154A5"/>
<path d="M15.5322 11.3955V15.7367L6.70848 17.7867V13.9279L15.4718 11.3955H15.5322Z" fill="white"/>
<path d="M21.7572 13.8676V17.7867L18.7958 16.822L15.5323 15.7367V11.3955H15.5927L21.7572 13.8676Z" fill="#2154A5"/>
<path d="M18.4332 17.1839L15.4718 20.1383V21.0427H15.5323L21.6968 22.6706V18.1486L18.4332 17.1839ZM15.5323 21.7059L15.4718 25.9265H15.5323L21.6968 27.3133V23.0324L15.5323 21.7059ZM15.5323 26.7103L15.4718 30.5691H15.5323L21.6968 31.8956V27.5544L15.5323 26.7103ZM18.7958 16.8221L21.7572 17.8471V13.8677L18.7958 16.8221ZM15.5323 31.353L15.4718 33.6441C15.4718 33.6441 15.4718 33.6441 15.5323 33.6441C17.5267 33.403 19.642 33.2221 21.6968 33.1015V32.3177L15.5323 31.353Z" fill="#2154A5"/>
<path d="M31.3667 29.1824L31.3062 29.1221V32.6794C31.3667 32.6794 31.3667 32.6794 31.3667 32.6794C33.4215 32.7397 35.5368 32.8 37.5312 32.9206V30.4486L31.3667 29.1824ZM31.4271 22.3691H31.3667V28.0368L37.5312 29.9662V23.6353L31.4271 22.3691Z" fill="#2154A5"/>
</g>
<defs>
<clipPath id="clip0_8_758">
<rect width="238" height="41" fill="white"/>
</clipPath>
</defs>
</svg>
