<svg width="25" height="20" viewBox="0 0 25 20" fill="none" xmlns="http://www.w3.org/2000/svg">
<path d="M12.4259 0.000131867C12.612 0.00346518 12.801 0.0697768 12.9846 0.189524L24.4996 9.28038C24.7954 9.57408 25.0034 10.2065 24.6985 10.5966C24.3936 10.9868 23.7524 11.0392 23.3822 10.7103L12.4259 2.06451L1.46952 10.7103C1.09934 11.0392 0.444589 10.997 0.153228 10.5966C-0.102437 10.2454 -0.0394982 9.5732 0.352075 9.28038L4.54713 5.966V0.909216C4.54716 0.668119 4.64294 0.436909 4.81343 0.266428C4.98391 0.095947 5.21512 0.000155973 5.45622 0.000131867H7.88044C8.12154 0.000155973 8.35275 0.095947 8.52324 0.266428C8.69372 0.436909 8.7895 0.668119 8.78953 0.909216V2.62322L11.8672 0.189524C12.0565 0.0564587 12.2397 -0.00319841 12.4259 0.000131867ZM6.97136 1.8183H6.3653V4.53608L6.97136 4.05313V1.8183ZM19.6985 8.87317L21.5167 10.3126V19.0909C21.5167 19.332 21.4209 19.5632 21.2504 19.7337C21.0799 19.9042 20.8487 20 20.6076 20H14.8501C14.609 20 14.3778 19.9042 14.2073 19.7337C14.0368 19.5632 13.941 19.332 13.941 19.0909V15.4546C13.941 14.5995 13.281 13.9394 12.4259 13.9394C11.5708 13.9394 10.9107 14.5995 10.9107 15.4546V19.0909C10.9107 19.332 10.8149 19.5632 10.6444 19.7337C10.474 19.9042 10.2427 20 10.0016 20H4.24411C4.00301 20 3.77179 19.9042 3.60131 19.7337C3.43083 19.5632 3.33505 19.332 3.33502 19.0909V10.3126L5.15319 8.87317V18.1818H9.09256V15.4546C9.09256 13.6237 10.5949 12.1213 12.4259 12.1213C14.2568 12.1213 15.7592 13.6237 15.7592 15.4546V18.1818H19.6985V8.87317Z" fill="#3FA9DB"/>
</svg>
