<svg width="34" height="35" viewBox="0 0 34 35" fill="none" xmlns="http://www.w3.org/2000/svg">
<path d="M13.9706 32.0678C13.2177 32.0678 12.4957 31.7605 11.9633 31.2135C11.4309 30.6665 11.1319 29.9247 11.1319 29.1511M22.4867 32.0678H19.648M28.1642 11.6511C28.917 11.6511 29.6391 11.9584 30.1714 12.5054C30.7038 13.0524 31.0029 13.7942 31.0029 14.5678M31.0029 20.4011V23.3178M31.0029 29.1511C31.0029 29.9247 30.7038 30.6665 30.1714 31.2135C29.6391 31.7605 28.917 32.0678 28.1642 32.0678M22.4867 5.81779C22.4867 5.04424 22.1877 4.30238 21.6553 3.75539C21.1229 3.20841 20.4009 2.90112 19.648 2.90112H5.45444C4.70156 2.90112 3.97953 3.20841 3.44716 3.75539C2.9148 4.30238 2.61572 5.04424 2.61572 5.81779V20.4011C2.61572 21.1747 2.9148 21.9165 3.44716 22.4635C3.97953 23.0105 4.70156 23.3178 5.45444 23.3178H9.71251C10.0889 23.3178 10.45 23.1641 10.7162 22.8907C10.9823 22.6172 11.1319 22.2462 11.1319 21.8595V14.5678C11.1319 13.7942 11.4309 13.0524 11.9633 12.5054C12.4957 11.9584 13.2177 11.6511 13.9706 11.6511H21.0674C21.4438 11.6511 21.8048 11.4975 22.071 11.224C22.3372 10.9505 22.4867 10.5796 22.4867 10.1928V5.81779Z" stroke="#969696" stroke-width="1.42021" stroke-linecap="round" stroke-linejoin="round"/>
</svg>
