<svg width="35" height="32" viewBox="0 0 35 32" fill="none" xmlns="http://www.w3.org/2000/svg">
<path d="M13.789 2.39341L10.5192 5.74762M25.2332 27.55V30.9042M0.709961 15.8102H33.4076M8.88436 27.55V30.9042M12.1541 4.07051L9.89962 1.75778C9.42684 1.27053 8.82654 0.934265 8.17136 0.789661C7.51618 0.645058 6.83418 0.698315 6.20789 0.942989C5.58159 1.18766 5.03784 1.61327 4.6424 2.16832C4.24696 2.72337 4.01678 3.38408 3.97972 4.07051V24.1958C3.97972 25.0854 4.32421 25.9385 4.93741 26.5676C5.55061 27.1966 6.38229 27.55 7.24948 27.55H26.8681C27.7352 27.55 28.5669 27.1966 29.1801 26.5676C29.7933 25.9385 30.1378 25.0854 30.1378 24.1958V15.8102" stroke="#969696" stroke-width="1.42021" stroke-linecap="round" stroke-linejoin="round"/>
</svg>
