<svg width="27" height="32" viewBox="0 0 27 32" fill="none" xmlns="http://www.w3.org/2000/svg">
<path d="M26.1882 8.70689L13.0941 0L0 8.70689L13.0941 17.4096L26.1882 8.70689ZM13.0941 0.830827L24.9352 8.70273L13.0941 16.5746L1.25299 8.70654L13.0941 0.830827Z" fill="#969696"/>
<path d="M22.4521 13.5378L22.0719 14.1154L24.9359 16.0202L13.0948 23.8963L1.25087 16.0202L4.14592 14.0951L3.76171 13.5175L0.00341797 16.0242L13.0948 24.727L26.1889 16.0201L22.4521 13.5378Z" fill="#969696"/>
<path d="M3.76122 20.7932L0.00292969 23.2973L13.0943 32L26.1884 23.2973L22.4519 20.8135L22.0717 21.3885L24.9356 23.2973L13.0945 31.1692L1.25066 23.2973L4.14571 21.3682L3.76122 20.7932Z" fill="#969696"/>
</svg>
