<svg width="32" height="25" viewBox="0 0 32 25" fill="none" xmlns="http://www.w3.org/2000/svg">
<path d="M0.709961 24.0434V12.3767C0.709961 11.6032 1.02298 10.8613 1.58017 10.3144C2.13735 9.76737 2.89305 9.46008 3.68103 9.46008M3.68103 9.46008H27.4495M3.68103 9.46008V3.62675C3.68103 2.8532 3.99405 2.11134 4.55123 1.56435C5.10841 1.01737 5.86411 0.710083 6.65209 0.710083H24.4785C25.2664 0.710083 26.0222 1.01737 26.5793 1.56435C27.1365 2.11134 27.4495 2.8532 27.4495 3.62675V9.46008M27.4495 9.46008C28.2375 9.46008 28.9932 9.76737 29.5504 10.3144C30.1076 10.8613 30.4206 11.6032 30.4206 12.3767V24.0434M15.5653 0.710083V9.46008M0.709961 21.1267H30.4206" stroke="#969696" stroke-width="1.42021" stroke-linecap="round" stroke-linejoin="round"/>
</svg>
