<svg width="30" height="30" viewBox="0 0 30 30" fill="none" xmlns="http://www.w3.org/2000/svg">
<path d="M10.4872 0.000218316C10.0091 -0.00490836 9.49004 0.0796877 8.92228 0.314247C7.62266 0.851295 7.06126 1.75109 6.67291 2.62526C6.28455 3.49942 6.01157 4.35049 5.18358 5.17849C4.35562 6.00649 3.50712 6.27569 2.63303 6.66403C1.75894 7.05237 0.860477 7.61507 0.320864 8.91351C-0.217435 10.2119 0.0196678 11.2476 0.361878 12.1397C0.705378 13.0331 1.11168 13.8239 1.11168 14.9954C1.11168 16.1669 0.704099 16.9591 0.360599 17.8524C0.0170987 18.7445 -0.221274 19.7763 0.317022 21.076C0.854042 22.3757 1.75379 22.9397 2.62791 23.3293C3.50203 23.7177 4.34922 23.9882 5.17718 24.8162C6.00513 25.6442 6.27559 26.4927 6.66391 27.3668C7.05227 28.241 7.61491 29.1434 8.91328 29.6817C10.2117 30.22 11.2472 29.9803 12.1393 29.6381C13.0313 29.2946 13.8234 28.887 14.9936 28.887C16.165 28.887 16.9584 29.2959 17.8505 29.6394C18.7425 29.9829 19.7768 30.2213 21.0764 29.683C22.3761 29.1459 22.9375 28.2461 23.3258 27.372C23.7142 26.4978 23.9884 25.6506 24.8164 24.8226C25.6444 23.9946 26.4929 23.7254 27.367 23.337C28.2411 22.9486 29.1395 22.386 29.6791 21.0875C30.2174 19.7891 29.9803 18.7535 29.6381 17.8614C29.2946 16.968 28.8845 16.1772 28.8845 15.0069C28.8845 13.8354 29.2959 13.042 29.6394 12.1499C29.9829 11.2578 30.2213 10.2222 29.683 8.92247C29.146 7.62278 28.2462 7.06136 27.3721 6.67298C26.498 6.28461 25.6469 6.01161 24.8203 5.18358C23.9923 4.35558 23.7218 3.50704 23.3335 2.6329C22.9452 1.75877 22.3838 0.860253 21.0854 0.320613C19.7871 -0.217715 18.7515 0.0194007 17.8582 0.361629C16.9648 0.705147 16.174 1.11531 15.0039 1.11531C13.8324 1.11531 13.0441 0.706426 12.1508 0.362909C11.7048 0.191153 11.2216 0.045034 10.6897 0.00915318C10.6231 0.00402618 10.5564 0.00146292 10.4885 0.000180921L10.4872 0.000218316ZM10.4859 0.916681C10.9422 0.920526 11.3459 1.05511 11.8112 1.23456C12.6366 1.55243 13.612 2.05104 15.0039 2.05104C16.3958 2.05104 17.3711 1.55501 18.1966 1.23839C19.022 0.921783 19.6564 0.743643 20.7253 1.18584C21.7943 1.62934 22.1198 2.20356 22.4787 3.01234C22.8376 3.82111 23.1747 4.86062 24.159 5.845C25.1433 6.82939 26.1815 7.16907 26.9902 7.52922C27.799 7.88938 28.3745 8.21367 28.8166 9.28267C29.2588 10.3517 29.0819 10.9861 28.7641 11.8116C28.4462 12.637 27.9476 13.6124 27.9476 15.0044C27.9476 16.3964 28.4436 17.3718 28.7602 18.1973C29.0768 19.0227 29.255 19.6597 28.8128 20.7287C28.3693 21.7977 27.7938 22.1207 26.9851 22.4796C26.1764 22.8384 25.1369 23.1756 24.1526 24.16C23.1683 25.1443 22.8299 26.1851 22.4697 26.9939C22.1096 27.8027 21.7853 28.3782 20.7164 28.8204C19.6475 29.2626 19.013 29.0832 18.1863 28.764C17.3609 28.4461 16.3868 27.9514 14.9949 27.9514C13.603 27.9514 12.6277 28.4474 11.8022 28.764C10.9768 29.0806 10.3424 29.2587 9.27349 28.8153C8.20456 28.3718 7.87901 27.7975 7.52012 26.9901C7.16123 26.1813 6.82289 25.1379 5.83983 24.1535C4.8555 23.1692 3.81604 22.8334 3.00731 22.4732C2.19858 22.113 1.62566 21.7887 1.18347 20.7197C0.741272 19.6507 0.91816 19.0124 1.23602 18.187C1.55388 17.3615 2.0499 16.3874 2.0499 14.9954C2.0499 13.6034 1.55389 12.628 1.2373 11.8025C0.920722 10.9771 0.742571 10.3426 1.18475 9.27364C1.62822 8.20466 2.20626 7.88165 3.01499 7.52278C3.82372 7.16387 4.86317 6.82551 5.84751 5.8424C6.83184 4.85802 7.17019 3.81723 7.53036 3.00845C7.89053 2.19968 8.21221 1.62546 9.28113 1.18324C9.74895 0.989696 10.1335 0.914072 10.4872 0.917918L10.4859 0.916681ZM14.9961 5.38874C9.69517 5.38874 5.38871 9.69674 5.38871 14.998C5.38871 20.2992 9.69517 24.6099 14.9961 24.6099C20.2971 24.6099 24.6088 20.2992 24.6088 14.998C24.6088 9.69674 20.2984 5.38874 14.9961 5.38874ZM14.9961 6.32572C19.7908 6.32572 23.6708 10.2016 23.6708 14.9982C23.6708 19.7931 19.7912 23.6732 14.9961 23.6732C10.2014 23.6732 6.32547 19.7934 6.32547 14.9982C6.32547 10.2032 10.2011 6.32572 14.9961 6.32572ZM14.9961 9.29554C14.8718 9.29554 14.7526 9.34553 14.6655 9.43397C14.5783 9.52241 14.5296 9.64161 14.5296 9.76594V10.7734H14.4578C13.18 10.7734 12.1457 11.8347 12.1457 13.1229C12.1457 14.411 13.1787 15.4697 14.4578 15.4697H15.5409C16.3073 15.4697 16.9136 16.0837 16.9136 16.8784C16.9136 17.6718 16.306 18.2896 15.5409 18.2896H15.0551V18.2883C15.0359 18.2858 15.0154 18.2845 14.9961 18.2845C14.9782 18.2845 14.9603 18.2858 14.9423 18.2883H13.2736C13.1492 18.2883 13.0301 18.337 12.9416 18.4242C12.8532 18.5113 12.8032 18.6305 12.8032 18.7549C12.8019 18.8805 12.8519 18.9997 12.9403 19.0881C13.0288 19.1766 13.148 19.2265 13.2736 19.2253H14.5296V20.2327C14.5283 20.4916 14.7372 20.7031 14.9962 20.7031C15.1218 20.7044 15.241 20.6544 15.3294 20.566C15.4178 20.4775 15.4678 20.3583 15.4665 20.2327V19.2253H15.5396C16.8174 19.2253 17.8505 18.164 17.8505 16.8758C17.8505 15.5876 16.8174 14.5302 15.5396 14.5302H14.4566C13.6901 14.5302 13.0787 13.915 13.0787 13.1216C13.0787 12.3281 13.6901 11.7103 14.4566 11.7103H16.7226C16.8469 11.7116 16.9674 11.6616 17.0545 11.5745C17.1429 11.4873 17.1929 11.3681 17.1929 11.2438C17.1942 11.1182 17.1442 10.999 17.0558 10.9105C16.9674 10.8221 16.8482 10.7721 16.7226 10.7734H15.4665V9.76595C15.4678 9.64161 15.4178 9.52113 15.3294 9.4327C15.2409 9.34426 15.1217 9.29426 14.9961 9.29554Z" fill="#969696"/>
</svg>
