<svg width="35" height="31" viewBox="0 0 35 31" fill="none" xmlns="http://www.w3.org/2000/svg">
<path d="M30.2433 14.1135L30.2562 14.1245L30.305 14.167L31.8343 15.469C32.0654 15.5925 32.3296 15.6309 32.5809 15.5911C32.8508 15.5486 33.1036 15.4128 33.283 15.196C33.4625 14.9792 33.5429 14.7117 33.5257 14.4496C33.5085 14.1999 33.4022 13.9543 33.2084 13.7636L19.6137 2.18121C19.0078 1.66533 18.2511 1.40605 17.4972 1.40605C16.7419 1.40605 15.9867 1.66536 15.3793 2.18121L1.78463 13.7636C1.59078 13.9544 1.48309 14.1999 1.4673 14.4496C1.45007 14.6993 1.52186 14.9531 1.68411 15.1644L1.70996 15.1933C1.89088 15.4114 2.1436 15.5486 2.41212 15.5911C2.66339 15.6309 2.92758 15.5939 3.15875 15.469L4.6822 14.1711C4.70374 14.1505 4.72528 14.1313 4.74968 14.1149L15.707 4.77995C16.2196 4.34365 16.8585 4.12551 17.4989 4.12551C18.1379 4.12551 18.7783 4.34365 19.2895 4.77995L30.2453 14.1149L30.2433 14.1135ZM30.5247 16.2305V28.4275C30.5247 29.1355 30.2218 29.779 29.735 30.2454C29.2468 30.7119 28.5734 31 27.8325 31H23.216C22.4751 31 21.8002 30.7105 21.3135 30.2454C20.8253 29.779 20.5223 29.1355 20.5223 28.4275V21.7679C20.5223 21.4469 20.3845 21.1546 20.1633 20.9433L20.1346 20.9145C19.9178 20.7197 19.6235 20.6003 19.3004 20.6003H15.6949C15.3575 20.6003 15.0517 20.732 14.8319 20.9406C14.6108 21.1546 14.473 21.4469 14.473 21.7679V28.4275C14.473 29.1355 14.17 29.779 13.6833 30.2454C13.1951 30.7119 12.5216 31 11.7807 31H7.16315C6.42225 31 5.74736 30.7105 5.26061 30.2454C4.77242 29.779 4.4709 29.1355 4.4709 28.4275V16.2333L4.09758 16.5516C4.04876 16.5941 3.99563 16.627 3.93963 16.6545C3.39112 16.9686 2.76366 17.0688 2.17351 16.9741C1.55751 16.8754 0.977427 16.5653 0.563896 16.0659L0.526564 16.0165C0.138874 15.5253 -0.0334119 14.9354 0.00533132 14.3605C0.0455376 13.7651 0.308301 13.182 0.787879 12.7361L14.4057 1.1319C15.2917 0.377324 16.3959 0 17.5 0C18.6042 0 19.7084 0.377289 20.5944 1.1319L34.1905 12.7143L34.2494 12.7706C34.7046 13.211 34.9559 13.7804 34.9946 14.3593C35.0348 14.952 34.851 15.5612 34.4361 16.0606C34.0197 16.5628 33.441 16.8728 32.8264 16.9716C32.2133 17.0704 31.56 16.9579 30.9971 16.6149L30.9038 16.5477L30.529 16.228L30.5247 16.2305ZM5.93819 14.9806V28.4273C5.93819 28.7484 6.07604 29.0406 6.29716 29.2519C6.51828 29.4632 6.82413 29.5949 7.16014 29.5949H11.7777C12.1137 29.5949 12.4196 29.4632 12.6407 29.2519C12.8618 29.0406 12.9997 28.7484 12.9997 28.4273V21.7677C12.9997 21.0598 13.3026 20.4149 13.7908 19.9498C14.2804 19.4847 14.9553 19.1939 15.6933 19.1939H19.2988C20.0167 19.1939 20.6715 19.4669 21.1568 19.9101L21.2013 19.9498C21.6895 20.4163 21.9925 21.0598 21.9925 21.7677V28.4274C21.9925 28.7484 22.1303 29.0406 22.3515 29.2519C22.5726 29.4632 22.8784 29.5949 23.2144 29.5949H27.8309C28.1669 29.5949 28.4728 29.4632 28.6939 29.2519C28.915 29.0406 29.0529 28.7484 29.0529 28.4274V14.9764L18.3095 5.82516C18.0769 5.62622 17.7854 5.52743 17.4954 5.52743C17.2053 5.52743 16.9139 5.62759 16.6798 5.82516L5.93644 14.9788L5.93819 14.9806Z" fill="#969696"/>
</svg>
