<svg width="16" height="16" viewBox="0 0 16 16" fill="none" xmlns="http://www.w3.org/2000/svg">
<path d="M7.80027 3.74219C5.59863 3.74219 3.77441 5.53495 3.77441 7.76804C3.77441 10.0011 5.56718 11.7939 7.80027 11.7939C10.0334 11.7939 11.8261 9.96969 11.8261 7.76804C11.8261 5.5664 10.0019 3.74219 7.80027 3.74219ZM7.80027 10.3471C6.38493 10.3471 5.22121 9.18338 5.22121 7.76804C5.22121 6.3527 6.38493 5.18898 7.80027 5.18898C9.21561 5.18898 10.3793 6.3527 10.3793 7.76804C10.3793 9.18338 9.21561 10.3471 7.80027 10.3471Z" fill="#3FA9DB"/>
<path d="M11.9834 4.56054C12.4871 4.56054 12.8955 4.15218 12.8955 3.64844C12.8955 3.14469 12.4871 2.73633 11.9834 2.73633C11.4797 2.73633 11.0713 3.14469 11.0713 3.64844C11.0713 4.15218 11.4797 4.56054 11.9834 4.56054Z" fill="#3FA9DB"/>
<path d="M14.3421 1.28953C13.5244 0.440328 12.3606 0 11.0397 0H4.56054C1.82422 0 0 1.82422 0 4.56054V11.0082C0 12.3606 0.440328 13.5244 1.32098 14.3736C2.17019 15.1913 3.30246 15.6002 4.59199 15.6002H11.0082C12.3606 15.6002 13.4929 15.1599 14.3107 14.3736C15.1599 13.5558 15.6002 12.3921 15.6002 11.0397V4.56054C15.6002 3.23956 15.1599 2.10728 14.3421 1.28953ZM14.2163 11.0397C14.2163 12.0147 13.8703 12.801 13.3042 13.3357C12.7381 13.8703 11.9518 14.1534 11.0082 14.1534H4.59199C3.64843 14.1534 2.86213 13.8703 2.296 13.3357C1.72986 12.7695 1.44679 11.9832 1.44679 11.0082V4.56054C1.44679 3.61698 1.72986 2.83068 2.296 2.26454C2.83068 1.72986 3.64843 1.44679 4.59199 1.44679H11.0711C12.0147 1.44679 12.801 1.72986 13.3671 2.296C13.9018 2.86213 14.2163 3.64843 14.2163 4.56054V11.0397Z" fill="#3FA9DB"/>
</svg>
