<svg width="16" height="15" viewBox="0 0 16 15" fill="none" xmlns="http://www.w3.org/2000/svg">
<path d="M3.16667 1.5841C3.16646 2.00401 2.99944 2.40665 2.70236 2.70343C2.40528 3.00021 2.00247 3.16682 1.58254 3.16661C1.16262 3.1664 0.759972 2.99938 0.463188 2.70231C0.166404 2.40523 -0.000209765 2.00243 1.98203e-07 1.58251C0.000210161 1.16259 0.167226 0.759958 0.464308 0.463179C0.761389 0.166401 1.1642 -0.000209761 1.58413 1.98199e-07C2.00405 0.000210157 2.4067 0.167223 2.70348 0.464299C3.00026 0.761374 3.16688 1.16418 3.16667 1.5841ZM3.21417 4.33904H0.0475002V14.2505H3.21417V4.33904ZM8.2175 4.33904H5.06667V14.2505H8.18583V9.04937C8.18583 6.15193 11.9621 5.88277 11.9621 9.04937V14.2505H15.0892V7.97273C15.0892 3.08823 9.5 3.27031 8.18583 5.66902L8.2175 4.33904Z" fill="#3FA9DB"/>
</svg>
