<svg width="70" height="70" viewBox="0 0 70 70" fill="none" xmlns="http://www.w3.org/2000/svg">
<rect width="70" height="70" rx="8" fill="#3FA9DB"/>
<path d="M34.9682 37.0878C36.175 37.0802 37.3682 36.833 38.4787 36.3605C39.5891 35.888 40.5946 35.1995 41.4368 34.3352C42.6782 33.0557 43.5164 31.4397 43.8474 29.6879C44.1784 27.9362 43.9875 26.1257 43.2985 24.4815C42.6095 22.8373 41.4527 21.4316 39.9717 20.4391C38.4908 19.4466 36.7509 18.911 34.9682 18.8987H34.9132C33.7017 18.902 32.503 19.1471 31.3875 19.6198C30.272 20.0925 29.2621 20.7831 28.4171 21.6513C27.5855 22.4904 26.9293 23.4869 26.487 24.5823C26.0446 25.6778 25.8249 26.8504 25.8406 28.0318C25.8442 29.226 26.0833 30.4079 26.5442 31.5096C27.005 32.6114 27.6786 33.6115 28.5264 34.4526C29.3742 35.2938 30.3796 35.9595 31.4849 36.4116C32.5903 36.8638 33.774 37.0936 34.9682 37.0878ZM29.5731 22.8074C30.2661 22.0949 31.0945 21.5281 32.0097 21.1405C32.9248 20.7529 33.9083 20.5522 34.9022 20.5502H34.9682C35.9407 20.5488 36.904 20.7394 37.8027 21.111C38.7014 21.4827 39.5178 22.0281 40.2053 22.716C40.8927 23.404 41.4375 24.2209 41.8085 25.1198C42.1795 26.0188 42.3694 26.9822 42.3672 27.9547C42.3801 28.924 42.1998 29.8862 41.8368 30.7851C41.4739 31.684 40.9355 32.5015 40.2532 33.1901C39.566 33.8973 38.7446 34.4603 37.8371 34.8459C36.9296 35.2316 35.9543 35.4323 34.9682 35.4362C33.9876 35.4435 33.0151 35.2569 32.1068 34.8871C31.1985 34.5174 30.3722 33.9717 29.6755 33.2816C28.9787 32.5915 28.4252 31.7705 28.0467 30.8658C27.6682 29.961 27.4723 28.9904 27.4702 28.0098C27.4565 27.0462 27.6355 26.0897 27.9967 25.1963C28.3578 24.303 28.8938 23.4907 29.5731 22.8074Z" fill="white"/>
<path d="M21.7887 37.2914L21.8218 37.352C24.5523 42.1928 27.2921 47.0246 30.041 51.8471L30.3988 52.4802C30.9824 53.5041 31.5824 54.5666 32.232 55.5796C32.516 56.0184 32.906 56.3785 33.3659 56.6267C33.8258 56.875 34.3409 57.0033 34.8635 56.9999C35.4027 57.0018 35.9335 56.8675 36.407 56.6096C36.8805 56.3517 37.2812 55.9785 37.5721 55.5245C37.7427 55.2658 37.8914 54.974 38.0455 54.7263L40.7045 50.0414C43.4865 45.1381 46.2739 40.233 49.0669 35.3261C50.2497 33.2443 50.8913 30.8991 50.9331 28.5051C51.0044 26.3845 50.6293 24.2726 49.8321 22.3063C47.3107 16.2506 42.7359 12.8099 36.2398 12.0722C34.1977 11.8702 32.1358 12.0932 30.1841 12.7273C27.2451 13.6108 24.6388 15.356 22.7026 17.737C20.4134 20.4944 19.1113 23.9376 19.0031 27.5197C18.9677 29.3856 19.2354 31.2448 19.7959 33.0249C20.314 34.5108 20.9817 35.9403 21.7887 37.2914ZM23.9578 18.7775C25.6931 16.6515 28.0243 15.0929 30.6521 14.3018C32.3854 13.7293 34.2204 13.5304 36.0361 13.7182C41.8936 14.3789 46.017 17.4783 48.2906 22.9339C49.0096 24.6779 49.3546 26.5534 49.3036 28.4391C49.2682 30.564 48.7003 32.6461 47.652 34.4948C44.8591 39.4127 42.0661 44.3215 39.2732 49.2211L36.6197 53.9115C36.482 54.1593 36.3444 54.4015 36.1958 54.6382C36.0513 54.8564 35.855 55.0355 35.6244 55.1594C35.3939 55.2833 35.1363 55.3483 34.8745 55.3484C34.6287 55.3539 34.3856 55.2961 34.1686 55.1804C33.9517 55.0646 33.7682 54.895 33.6359 54.6878C33.0083 53.7133 32.4192 52.6729 31.8467 51.6654L31.4778 51.0103C28.7363 46.1951 25.9965 41.3707 23.2586 36.5372L23.2256 36.4821C22.4662 35.2384 21.8336 33.9216 21.3373 32.5514C20.8391 30.9297 20.6085 29.2376 20.6547 27.5417C20.7534 24.3349 21.9154 21.2518 23.9578 18.7775Z" fill="white"/>
</svg>
