<svg width="17" height="23" viewBox="0 0 17 23" fill="none" xmlns="http://www.w3.org/2000/svg">
<path d="M8.13393 0C3.63416 0 0 3.79406 0 8.41441C0 10.0807 0.501863 11.4066 1.27969 12.6654L7.4152 22.5962C7.49029 22.7195 7.59585 22.8214 7.72173 22.8921C7.8476 22.9629 7.98955 23 8.13393 23C8.27831 23 8.42026 22.9629 8.54613 22.8921C8.672 22.8214 8.77756 22.7195 8.85266 22.5962L14.9882 12.6654C15.766 11.4066 16.2679 10.0807 16.2679 8.41441C16.2679 3.79406 12.6337 0 8.13393 0ZM8.13393 1.68288C11.6892 1.68288 14.585 4.66989 14.585 8.41441C14.585 9.7629 14.2315 10.6783 13.5507 11.7802L8.13393 20.5452L2.71715 11.7802C2.03631 10.6783 1.68288 9.76287 1.68288 8.41441C1.68288 4.66989 4.57864 1.68288 8.13393 1.68288ZM8.13393 3.92672C5.82033 3.92672 3.92672 5.82033 3.92672 8.13393C3.92672 10.4475 5.8203 12.3411 8.13393 12.3411C10.4476 12.3411 12.3411 10.4475 12.3411 8.13393C12.3411 5.82033 10.4475 3.92672 8.13393 3.92672ZM8.13393 5.60961C9.53804 5.60961 10.6583 6.72982 10.6583 8.13393C10.6583 9.53798 9.53801 10.6583 8.13393 10.6583C6.72984 10.6583 5.60961 9.53798 5.60961 8.13393C5.60961 6.72982 6.72982 5.60961 8.13393 5.60961Z" fill="#3FA9DB"/>
</svg>
