<svg width="70" height="70" viewBox="0 0 70 70" fill="none" xmlns="http://www.w3.org/2000/svg">
<rect width="70" height="70" rx="8" fill="#3FA9DB"/>
<path fill-rule="evenodd" clip-rule="evenodd" d="M16.9504 20H53.0496C54.1375 20 55.1247 20.4461 55.8403 21.165C56.5559 21.8839 57 22.8775 57 23.9685V47.0295C57 48.1225 56.5559 49.1141 55.8403 49.833C55.1247 50.5519 54.1356 50.9981 53.0496 50.9981L16.9504 51C15.8625 51 14.8753 50.5539 14.1597 49.835C13.4441 49.1161 13 48.1225 13 47.0315V23.9705C13 22.8775 13.4441 21.8859 14.1597 21.167C14.8753 20.4461 15.8625 20 16.9504 20ZM54.3801 48.5766L40.2579 36.7469L38.1537 38.5081C37.281 39.2386 36.1445 39.6088 35.0178 39.6147C33.8891 39.6205 32.7545 39.2601 31.8877 38.5334L29.7544 36.7469L15.6262 48.5821C15.983 48.8899 16.4465 49.0789 16.9508 49.0789H53.0499C53.5561 49.077 54.0213 48.8884 54.3801 48.5766ZM14.9144 46.6868L28.2671 35.5L14.9144 24.3131V46.6868ZM15.6261 22.4179L30.3476 34.7504L30.3747 34.7718L33.1054 37.059C33.6173 37.4876 34.3097 37.7 35.0098 37.698C35.7138 37.6941 36.4119 37.4739 36.9355 37.0356L39.6371 34.7717L39.6623 34.7503L54.3802 22.4218C54.0215 22.1101 53.556 21.9211 53.0498 21.9211L16.9507 21.9231C16.4465 21.9231 15.983 22.11 15.6261 22.4179ZM55.0879 24.3232L41.7451 35.5001L55.0859 46.677V24.3232H55.0879Z" fill="white"/>
</svg>
