<svg width="70" height="70" viewBox="0 0 70 70" fill="none" xmlns="http://www.w3.org/2000/svg">
<rect width="70" height="70" rx="8" fill="#3FA9DB"/>
<path d="M21.9785 14.7539L21.9795 14.7529C22.7223 14.7881 23.4614 15.0817 24.0332 15.6533L31.0479 22.6729C32.3547 23.98 32.2809 26.1419 30.8887 27.3564L27.4395 30.3652C27.4913 30.5681 27.6066 30.9349 27.9326 31.6006L28.1387 32.0068L28.4365 32.5488C29.1953 33.8754 30.4249 35.6231 32.3994 37.5977C34.6563 39.8546 36.6173 41.1416 37.9912 41.8613C38.9183 42.3474 39.3931 42.4983 39.6348 42.5605L42.6406 39.1094C43.8553 37.7167 46.0209 37.643 47.3281 38.9502L54.3428 45.9668C55.6457 47.2697 55.5313 49.4435 54.0918 50.5967L48.5713 55.0176L48.5723 55.0186C48.4491 55.12 48.3003 55.1843 48.1465 55.208L47.3916 55.3242L47.4717 55.2432C47.1839 55.2491 46.8081 55.2494 46.3525 55.2207C45.2165 55.1491 43.5853 54.9226 41.5918 54.3027C37.6027 53.0627 32.1018 50.2627 25.9209 44.082C19.7396 37.8995 16.9382 32.3987 15.6982 28.4111C15.0774 26.4176 14.8498 24.7865 14.7783 23.6504C14.7426 23.0824 14.7464 22.638 14.7588 22.334C14.765 22.1821 14.7732 22.0652 14.7803 21.9854C14.7838 21.9454 14.7867 21.9147 14.7891 21.8936C14.7902 21.8831 14.7913 21.8749 14.792 21.8691C14.7923 21.8663 14.7928 21.864 14.793 21.8623V21.8594L14.7939 21.8584C14.8156 21.7021 14.8796 21.5536 14.9775 21.4316L15.0527 21.3379H15.0547L19.4043 15.9102C19.9812 15.1899 20.8127 14.8013 21.6621 14.7549H21.6631C21.7651 14.7495 21.8707 14.7484 21.9785 14.7539ZM21.7188 16.4902C21.3634 16.5196 21.0184 16.6884 20.7686 17L16.5352 22.2852C16.4925 22.6561 16.3407 24.5927 17.3652 27.8887C18.518 31.5968 21.158 36.8417 27.1572 42.8408C33.1564 48.8419 38.3978 51.4771 42.1045 52.6299C45.3974 53.6524 47.341 53.5017 47.7158 53.459L52.9951 49.2266C53.6365 48.7126 53.6896 47.7854 53.1084 47.2041L46.0908 40.1865C45.5248 39.6205 44.639 39.6133 44.0684 40.1445L43.959 40.2578L40.5684 44.1523L40.4834 44.2373C40.3068 44.3894 40.0765 44.4642 39.8447 44.4473L39.7285 44.4316L39.7275 44.4307H39.7236C39.7211 44.4301 39.7173 44.4287 39.7129 44.4277C39.7042 44.4258 39.6916 44.4228 39.6758 44.4189C39.6436 44.4112 39.5971 44.3993 39.5371 44.3828C39.4167 44.3497 39.2416 44.2978 39.0195 44.2207C38.5755 44.0666 37.9421 43.813 37.1768 43.4121C35.6468 42.6107 33.5453 41.2122 31.1641 38.8311C28.7847 36.4501 27.3903 34.3482 26.5889 32.8184C26.188 32.0531 25.9327 31.4194 25.7773 30.9756C25.6997 30.7538 25.6469 30.5792 25.6133 30.459C25.5965 30.3989 25.5841 30.3524 25.5762 30.3203C25.5722 30.3043 25.5694 30.2919 25.5674 30.2832C25.5664 30.2788 25.566 30.2749 25.5654 30.2725C25.5652 30.2713 25.5646 30.2702 25.5645 30.2695V30.2686L25.5635 30.2666C25.4986 29.9567 25.609 29.6339 25.8486 29.4277L29.7373 26.0381C30.3405 25.5117 30.4086 24.6286 29.918 24.0234L29.8125 23.9062L22.7949 16.8926C22.5026 16.6003 22.1238 16.4682 21.7559 16.4883L21.7188 16.4902ZM35.2412 28.084C38.9209 28.084 41.914 31.0828 41.9141 34.7617C41.9141 34.9924 41.8226 35.2138 41.6582 35.3789L41.6592 35.3799C41.4961 35.5454 41.2728 35.6387 41.04 35.6387C40.8073 35.6387 40.5845 35.5484 40.4189 35.3828C40.2546 35.2184 40.1608 34.9939 40.1631 34.7598L40.1562 34.5059C40.0249 31.8965 37.8837 29.833 35.2412 29.833V29.832C35.009 29.8338 34.7867 29.7436 34.6221 29.5791V29.5781C34.4781 29.4355 34.3882 29.2481 34.3682 29.0479L34.3643 28.9609C34.3627 28.7277 34.4563 28.5037 34.6201 28.3398C34.7856 28.1744 35.0086 28.084 35.2412 28.084ZM35.2432 21.9893C42.2878 21.9904 48.0106 27.7154 48.0117 34.7598L48.0088 34.8467C47.9902 35.0489 47.8998 35.2389 47.7559 35.3828C47.5903 35.5484 47.3675 35.6387 47.1348 35.6387H47.1318C46.9028 35.6362 46.6799 35.5466 46.5156 35.3799C46.3547 35.2165 46.2604 34.9943 46.2627 34.7598C46.2615 28.6659 41.3354 23.7383 35.2412 23.7383C35.0085 23.7383 34.7857 23.648 34.6201 23.4824C34.4557 23.318 34.362 23.0935 34.3643 22.8594C34.3648 22.6565 34.4361 22.4612 34.5645 22.3066L34.623 22.2422C34.788 22.078 35.0108 21.987 35.2432 21.9893ZM35.2412 16.2402C45.4631 16.2403 53.7578 24.5402 53.7578 34.7617C53.7577 34.9925 53.6665 35.2138 53.502 35.3789L53.5029 35.3799C53.3398 35.5453 53.1165 35.6387 52.8838 35.6387H52.8818C52.6524 35.6363 52.43 35.5462 52.2646 35.3809L52.2637 35.3799C52.1012 35.2151 52.0098 34.9928 52.0098 34.7617V34.6572C51.9547 25.4359 44.4758 17.9893 35.2412 17.9893V17.9883C35.0091 17.99 34.7867 17.8997 34.6221 17.7354V17.7344C34.4781 17.5918 34.3883 17.4043 34.3682 17.2041L34.3643 17.1172C34.3626 16.8838 34.4562 16.66 34.6201 16.4961C34.7857 16.3306 35.0085 16.2402 35.2412 16.2402Z" fill="white" stroke="white" stroke-width="0.5"/>
</svg>
