<svg width="17" height="20" viewBox="0 0 17 20" fill="none" xmlns="http://www.w3.org/2000/svg">
<path d="M16.994 11.2937C17.0145 11.5427 16.9826 11.7933 16.9006 12.0281C16.8186 12.2629 16.6885 12.4761 16.5193 12.6528L12.027 17.3464C11.7061 17.6789 11.3257 17.9419 10.9074 18.1205C10.4891 18.2991 10.0412 18.3897 9.58934 18.3872H4.04223L2.63787 19.8504C2.54618 19.9462 2.42182 20 2.29215 20C2.16248 20 2.03812 19.9462 1.94643 19.8504C1.85474 19.7546 1.80323 19.6247 1.80323 19.4892C1.80323 19.3537 1.85474 19.2238 1.94643 19.128L3.48947 17.5158C3.5349 17.4685 3.58882 17.4309 3.64814 17.4054C3.70746 17.3798 3.77102 17.3667 3.83519 17.3668H9.58934C9.91588 17.3682 10.2394 17.3019 10.5412 17.1716C10.843 17.0412 11.117 16.8496 11.3472 16.6077L15.8396 11.914C15.9579 11.7822 16.0226 11.6075 16.0198 11.4268C16.017 11.2461 15.9471 11.0737 15.8248 10.9459C15.7025 10.8181 15.5374 10.7451 15.3645 10.7422C15.1915 10.7393 15.0243 10.8068 14.8982 10.9304L11.3531 14.6731L11.3414 14.6833C11.0362 14.9992 10.6245 15.1773 10.1948 15.1792H6.76696C6.63745 15.1792 6.51325 15.1254 6.42167 15.0298C6.3301 14.9341 6.27865 14.8043 6.27865 14.669C6.27865 14.5337 6.3301 14.4039 6.42167 14.3083C6.51325 14.2126 6.63745 14.1588 6.76696 14.1588H10.1968C10.3469 14.1581 10.4924 14.1042 10.6094 14.006C10.7265 13.9078 10.8082 13.771 10.8414 13.618C10.8627 13.5172 10.8621 13.4127 10.8396 13.3122C10.8172 13.2117 10.7734 13.1177 10.7115 13.0372C10.6497 12.9567 10.5713 12.8918 10.4822 12.8471C10.3931 12.8025 10.2956 12.7793 10.1968 12.7793H4.28052C4.0095 12.7785 3.74102 12.8338 3.49058 12.942C3.24015 13.0502 3.01273 13.2093 2.82147 13.4099L1.95815 14.3098C1.9143 14.3632 1.86038 14.4065 1.79975 14.437C1.73913 14.4675 1.67312 14.4846 1.60587 14.4873C1.53862 14.4899 1.47158 14.4779 1.40895 14.4522C1.34632 14.4264 1.28947 14.3875 1.24195 14.3377C1.19443 14.2879 1.15727 14.2284 1.13281 14.1629C1.10835 14.0974 1.09711 14.0273 1.09981 13.957C1.1025 13.8868 1.11906 13.8178 1.14846 13.7546C1.17785 13.6913 1.21944 13.6351 1.27062 13.5895L2.13394 12.6895C2.41541 12.3937 2.75022 12.1592 3.11901 11.9994C3.4878 11.8397 3.88325 11.758 4.28247 11.7589H10.1968C10.5206 11.7579 10.8374 11.858 11.1064 12.0463C11.3754 12.2347 11.5844 12.5027 11.7066 12.816L14.195 10.2162C14.4169 9.98435 14.6977 9.82379 15.0042 9.75348C15.3106 9.68316 15.63 9.70603 15.9244 9.81937C16.2188 9.93272 16.476 10.1318 16.6656 10.3931C16.8551 10.6543 16.9691 10.9669 16.994 11.2937ZM13.0875 4.55929C13.0281 4.40076 12.9381 4.25667 12.8232 4.13593C12.7083 4.01518 12.5709 3.92034 12.4195 3.85728L11.1636 3.33894L10.9214 1.95125C10.8922 1.78349 10.8303 1.62381 10.7394 1.48218C10.6485 1.34056 10.5306 1.22003 10.3932 1.12811C10.2557 1.0362 10.1016 0.974869 9.94045 0.947959C9.77929 0.921048 9.61456 0.929132 9.45653 0.971705L8.14592 1.31659L7.16932 0.343164C7.05141 0.225603 6.91161 0.134655 6.75862 0.0759822C6.60562 0.0173095 6.4427 -0.00783228 6.28 0.00212197C6.1173 0.0120762 5.95831 0.0569134 5.81291 0.133842C5.66751 0.210772 5.53883 0.318146 5.43487 0.449282L4.57545 1.53698L3.2375 1.34924C3.07581 1.32648 2.91136 1.33878 2.75441 1.38537C2.59747 1.43196 2.4514 1.51184 2.32531 1.62003C2.19922 1.72821 2.09582 1.86238 2.02156 2.01417C1.9473 2.16596 1.90377 2.3321 1.89369 2.50224L1.80971 3.91034L0.618248 4.57969C0.476211 4.66076 0.351532 4.7713 0.251868 4.90454C0.152204 5.03777 0.0796576 5.19088 0.0386846 5.35447C-0.00228843 5.51806 -0.0108237 5.68868 0.0136029 5.85584C0.0380295 6.023 0.0949024 6.18318 0.180729 6.32655L0.90537 7.51833L0.319407 8.78969C0.248714 8.94337 0.209097 9.11063 0.203029 9.28102C0.19696 9.45141 0.22457 9.62128 0.284136 9.78003C0.343701 9.93877 0.433944 10.083 0.549231 10.2037C0.664519 10.3244 0.802377 10.4189 0.954201 10.4814L2.46208 11.1039C2.52172 11.1285 2.58542 11.1407 2.64954 11.1396C2.71367 11.1385 2.77697 11.1243 2.83582 11.0977C2.89468 11.071 2.94794 11.0326 2.99256 10.9844C3.03718 10.9363 3.0723 10.8795 3.0959 10.8171C3.11949 10.7548 3.13111 10.6883 3.13009 10.6213C3.12907 10.5543 3.11543 10.4882 3.08995 10.4267C3.06447 10.3652 3.02764 10.3095 2.98158 10.2629C2.93551 10.2163 2.88111 10.1796 2.82147 10.1549L1.31359 9.53251C1.28664 9.52145 1.26216 9.50471 1.24167 9.48334C1.22118 9.46196 1.20512 9.43641 1.19449 9.40827C1.18387 9.38013 1.1789 9.35 1.1799 9.31977C1.1809 9.28953 1.18784 9.25984 1.20031 9.23253L1.90151 7.70607C1.93741 7.62809 1.95374 7.54184 1.94896 7.45545C1.94417 7.36906 1.91843 7.28536 1.87416 7.21222L1.00498 5.78372C0.989448 5.75815 0.97912 5.72952 0.974646 5.6996C0.970171 5.66968 0.971645 5.63912 0.978976 5.60983C0.986307 5.58053 0.999337 5.55313 1.01725 5.52933C1.03517 5.50552 1.05759 5.48584 1.08311 5.47149L2.51091 4.66744C2.58279 4.62716 2.64387 4.5687 2.68857 4.4974C2.73327 4.42611 2.76015 4.34425 2.76678 4.2593L2.86835 2.56959C2.8699 2.5393 2.87748 2.50969 2.8906 2.48264C2.90371 2.45558 2.92208 2.43168 2.94452 2.41245C2.96667 2.39274 2.99258 2.37818 3.02054 2.36973C3.04849 2.36129 3.07784 2.35916 3.10664 2.36347L4.71413 2.58999C4.79627 2.60205 4.88 2.59187 4.95729 2.56043C5.03458 2.52898 5.10285 2.47733 5.15556 2.41041L6.1888 1.10435C6.20731 1.08101 6.23022 1.0619 6.25611 1.04823C6.282 1.03456 6.31031 1.02661 6.33928 1.02488C6.36824 1.02316 6.39723 1.0277 6.42444 1.03821C6.45165 1.04872 6.47649 1.06499 6.49741 1.08599L7.66934 2.25532C7.72932 2.31527 7.80299 2.35818 7.88334 2.37997C7.96368 2.40176 8.04803 2.4017 8.12834 2.3798L9.69091 1.95737C9.71892 1.94988 9.7481 1.94848 9.77664 1.95326C9.80519 1.95804 9.83249 1.9689 9.85685 1.98517C9.88121 2.00143 9.90211 2.02276 9.91825 2.04781C9.9344 2.07287 9.94544 2.10113 9.95069 2.13083L10.2554 3.79402C10.2702 3.87942 10.3055 3.95947 10.3582 4.0266C10.4108 4.09373 10.479 4.14573 10.5562 4.17767L12.0641 4.80009C12.0904 4.81212 12.1141 4.82965 12.1338 4.8516C12.1534 4.87355 12.1685 4.89947 12.1782 4.92776C12.1879 4.95604 12.192 4.9861 12.1901 5.01609C12.1883 5.04607 12.1806 5.07535 12.1676 5.10212L11.4664 6.62857C11.4305 6.70656 11.4141 6.7928 11.4189 6.8792C11.4237 6.96559 11.4495 7.04929 11.4937 7.12243L12.3629 8.55093C12.3784 8.57649 12.3888 8.60513 12.3932 8.63505C12.3977 8.66496 12.3962 8.69552 12.3889 8.72482C12.3816 8.75412 12.3686 8.78152 12.3506 8.80532C12.3327 8.82912 12.3103 8.84881 12.2848 8.86316L10.857 9.6672C10.7985 9.69775 10.7465 9.74025 10.704 9.79219C10.6616 9.84413 10.6295 9.90445 10.6098 9.96957C10.5901 10.0347 10.5831 10.1033 10.5892 10.1713C10.5953 10.2393 10.6145 10.3053 10.6455 10.3655C10.6765 10.4256 10.7187 10.4786 10.7697 10.5214C10.8207 10.5641 10.8793 10.5957 10.9422 10.6144C11.0051 10.633 11.071 10.6382 11.1358 10.6298C11.2007 10.6213 11.2633 10.5993 11.3199 10.5651L12.7477 9.76108C12.8908 9.68007 13.0165 9.56919 13.1169 9.43531C13.2173 9.30143 13.2902 9.14742 13.3313 8.98284C13.3723 8.81826 13.3805 8.64663 13.3554 8.4786C13.3302 8.31056 13.2723 8.14972 13.1852 8.00606L12.4606 6.81428L13.0465 5.54291C13.1172 5.38937 13.157 5.22231 13.1634 5.05206C13.1697 4.88181 13.1426 4.71201 13.0836 4.55316L13.0875 4.55929ZM6.68101 9.66108C6.506 9.66138 6.33483 9.60745 6.18915 9.5061C6.04348 9.40476 5.92984 9.26055 5.86262 9.09172C5.83774 9.02995 5.80146 8.9739 5.75584 8.92678C5.71023 8.87966 5.65618 8.84238 5.59678 8.81709C5.53738 8.79179 5.4738 8.77896 5.40965 8.77934C5.34551 8.77972 5.28207 8.79329 5.22294 8.81928C5.16382 8.84528 5.11018 8.88319 5.06507 8.93084C5.01997 8.9785 4.9843 9.03497 4.96008 9.09703C4.93587 9.15909 4.92359 9.22552 4.92396 9.29254C4.92432 9.35956 4.93731 9.42585 4.96219 9.48762C5.10379 9.84174 5.34261 10.1441 5.64851 10.3566C5.95441 10.569 6.31369 10.6821 6.68101 10.6814C7.74356 10.6814 8.54438 9.89576 8.54438 8.84479C8.54438 8.32645 8.3178 7.40201 6.80797 7.03468H6.79235C5.79621 6.79795 5.79621 6.3592 5.79621 6.21839C5.79621 5.66536 6.25521 5.4021 6.68297 5.4021C6.85776 5.40163 7.02877 5.45526 7.17442 5.55623C7.32007 5.6572 7.43384 5.80097 7.50136 5.96942C7.52477 6.0332 7.56019 6.09141 7.60553 6.14061C7.65087 6.18981 7.7052 6.229 7.76531 6.25586C7.82542 6.28271 7.89007 6.29668 7.95544 6.29694C8.02081 6.2972 8.08557 6.28375 8.14587 6.25737C8.20617 6.23099 8.26079 6.19223 8.30648 6.14339C8.35218 6.09455 8.38802 6.03662 8.41189 5.97304C8.43576 5.90945 8.44716 5.84151 8.44543 5.77323C8.44369 5.70495 8.42885 5.63774 8.40179 5.57556C8.29224 5.30279 8.12439 5.05983 7.9111 4.86528C7.69781 4.67074 7.44474 4.52977 7.17127 4.45317V4.094C7.17127 3.95869 7.11982 3.82893 7.02825 3.73325C6.93668 3.63757 6.81247 3.58382 6.68297 3.58382C6.55346 3.58382 6.42926 3.63757 6.33769 3.73325C6.24611 3.82893 6.19466 3.95869 6.19466 4.094V4.45929C5.80735 4.54463 5.45998 4.76672 5.21098 5.0882C4.96198 5.40968 4.82653 5.81095 4.82742 6.22451C4.82742 6.74285 5.05399 7.6673 6.56382 8.03463H6.57945C7.57558 8.27339 7.57558 8.71011 7.57558 8.85091C7.56387 9.41211 7.10486 9.66312 6.67711 9.66312L6.68101 9.66108Z" fill="#3FA9DB"/>
</svg>
