<svg width="22" height="21" viewBox="0 0 22 21" fill="none" xmlns="http://www.w3.org/2000/svg">
<path d="M21.7974 19.8624L14.9544 13.2734C16.2148 11.8005 16.8935 9.94575 16.8706 8.03736C16.8231 3.64485 13.1135 0.0616321 8.55383 0.00077918C3.84886 -0.0614063 0 3.60665 0 8.12353C0 12.6147 3.80596 16.2649 8.46988 16.2472C10.5032 16.2408 12.4652 15.5245 13.9918 14.231L20.8186 20.8049C20.9484 20.9298 21.1243 21 21.3078 21C21.4912 21 21.6672 20.9298 21.797 20.8049C21.8613 20.7431 21.9123 20.6696 21.9472 20.5888C21.982 20.5079 22 20.4213 22 20.3337C22 20.2462 21.9822 20.1595 21.9474 20.0786C21.9127 19.9978 21.8617 19.9243 21.7974 19.8624ZM8.5935 14.9129C4.58043 14.9981 1.29571 11.836 1.38428 7.97073C1.46685 4.35421 4.52093 1.41372 8.27615 1.33421C12.2892 1.24893 15.5739 4.41106 15.4854 8.27633C15.4023 11.8929 12.3492 14.8333 8.5935 14.9129Z" fill="#969696"/>
</svg>
