<svg width="238" height="41" viewBox="0 0 238 41" fill="none" xmlns="http://www.w3.org/2000/svg">
<g clip-path="url(#clip0_7_214)">
<path d="M70.4088 9.225L77.7821 27.675L85.1554 9.225H91.0782L81.227 32.5588H74.3977L64.486 9.225H70.4088Z" fill="#3FA9DB"/>
<path d="M99.1163 28.0368C99.1163 26.5897 99.5998 25.5044 100.567 24.7206C101.534 23.9368 103.045 23.575 105.1 23.575H112.171V22.1882C112.171 20.5603 110.781 19.7162 108.061 19.7162C105.402 19.7162 104.012 20.3191 103.891 21.525H99.5998C99.6602 19.7765 100.446 18.5103 101.896 17.6059C103.347 16.7015 105.462 16.2794 108.242 16.2794C109.511 16.2794 110.66 16.4 111.687 16.6412C112.715 16.8824 113.621 17.2441 114.346 17.6662C115.072 18.0882 115.676 18.6309 116.039 19.2338C116.462 19.8368 116.643 20.5 116.643 21.2235V32.4382H113.077L112.352 30.3882C111.627 31.1118 110.66 31.7147 109.451 32.1368C108.242 32.5588 106.973 32.7397 105.523 32.7397C103.347 32.7397 101.776 32.3176 100.688 31.4735C99.6602 30.6294 99.1163 29.4838 99.1163 28.0368ZM112.171 25.9868H106.308C105.402 25.9868 104.737 26.1676 104.314 26.4691C103.891 26.7706 103.71 27.2529 103.71 27.7956C103.71 28.3985 103.951 28.8206 104.435 29.1221C104.918 29.4235 105.643 29.6044 106.671 29.6044C107.275 29.6044 107.88 29.5441 108.484 29.4235C109.088 29.3029 109.632 29.1824 110.116 28.9412C110.599 28.7603 111.083 28.5191 111.445 28.2176C111.808 27.9162 112.05 27.6147 112.231 27.2529V25.9868H112.171Z" fill="#3FA9DB"/>
<path d="M197.628 28.2176C197.628 26.7706 198.112 25.6853 199.079 24.9015C200.046 24.1176 201.557 23.7559 203.611 23.7559H210.683V22.3691C210.683 20.7412 209.293 19.8971 206.573 19.8971C203.914 19.8971 202.524 20.5 202.403 21.7059H198.112C198.172 19.9574 198.958 18.6912 200.408 17.7868C201.859 16.8824 203.974 16.4603 206.754 16.4603C208.023 16.4603 209.172 16.5809 210.199 16.8221C211.227 17.0632 212.133 17.425 212.858 17.8471C213.584 18.2691 214.188 18.8118 214.551 19.4147C214.974 20.0176 215.155 20.6809 215.155 21.4044V32.6191H211.589L210.864 30.5691C210.139 31.2926 209.172 31.8956 207.963 32.3176C206.754 32.7397 205.485 32.9206 204.035 32.9206C201.859 32.9206 200.287 32.4985 199.2 31.6544C198.172 30.8103 197.628 29.6647 197.628 28.2176ZM210.683 26.1676H204.82C203.914 26.1676 203.249 26.3485 202.826 26.65C202.403 26.9515 202.221 27.4338 202.221 27.9765C202.221 28.5794 202.463 29.0015 202.947 29.3029C203.43 29.6044 204.155 29.7853 205.183 29.7853C205.787 29.7853 206.392 29.725 206.996 29.6044C207.6 29.4838 208.144 29.3632 208.628 29.1221C209.111 28.9412 209.595 28.7 209.957 28.3985C210.32 28.0971 210.562 27.7956 210.743 27.4338V26.1676H210.683Z" fill="#3FA9DB"/>
<path d="M92.2265 11.275H96.4571V15.0132H92.2265V11.275ZM92.2265 17.1838H96.4571V32.4985H92.2265V17.1838Z" fill="#3FA9DB"/>
<path d="M119.907 10.7926H124.137V18.5103C125.829 17.0632 127.824 16.3397 130.785 16.3397C136.043 16.3397 139.79 19.2941 139.79 24.3588C139.79 29.1824 136.285 32.3779 130.785 32.3779C127.824 32.3779 125.588 31.6544 124.016 30.1471L123.412 32.0162H119.967V10.7926H119.907ZM129.758 29.0618C133.626 29.0618 135.499 27.0118 135.499 24.3588C135.499 21.6456 133.565 19.5956 129.758 19.5956C126.071 19.5956 124.016 21.6456 124.016 24.3588C124.016 27.0721 126.011 29.0618 129.758 29.0618Z" fill="#3FA9DB"/>
<path d="M152.119 15.4353C159.311 15.4353 162.152 19.3544 162.152 23.9368C162.152 28.4588 159.251 32.3779 152.119 32.3779C144.988 32.3779 142.087 28.4588 142.087 23.9368C142.087 19.3544 144.927 15.4353 152.119 15.4353ZM152.119 28.8809C156.652 28.8809 157.921 26.2279 157.921 23.8765C157.921 21.6456 156.713 18.8721 152.119 18.8721C147.587 18.8721 146.317 21.6456 146.317 23.8765C146.317 26.2279 147.587 28.8809 152.119 28.8809Z" fill="#3FA9DB"/>
<path d="M168.196 26.7103C168.316 28.0971 169.223 29.1221 172.789 29.1221C176.234 29.1221 177.321 28.3382 177.321 27.4338C177.321 26.4088 175.871 26.1074 173.997 25.8662L170.069 25.3235C167.108 24.9618 164.328 23.8162 164.328 20.9221C164.328 18.3897 166.443 16.2794 172.607 16.2794C178.772 16.2794 181.008 18.45 181.129 21.4044H177.08C176.959 20.2588 176.052 19.5353 172.849 19.5353C169.344 19.5353 168.679 20.3794 168.679 20.9221C168.679 21.8868 170.311 22.1279 172.426 22.4294L175.69 22.9118C178.772 23.3338 181.733 24.4191 181.733 27.3735C181.733 30.2676 179.135 32.3176 173.091 32.3176C166.987 32.3176 164.328 30.4485 164.207 26.65H168.196V26.7103Z" fill="#3FA9DB"/>
<path d="M186.085 20.1382H183.546V16.6412H186.085V12.5412H190.315V16.6412H195.513V20.1382H190.315V26.8309C190.315 27.9765 190.799 28.4588 191.947 28.4588H195.573V31.9559H190.074C187.475 31.9559 186.085 30.8103 186.085 27.7956V20.1382Z" fill="#3FA9DB"/>
<path d="M233.89 30.0868C232.319 31.5338 230.385 32.3176 227.182 32.3176C221.803 32.3176 218.177 29.2426 218.177 24.2985C218.177 19.2338 221.924 16.2794 227.242 16.2794C230.143 16.2794 232.379 17.1838 233.769 18.45V10.7926H238V32.0162H233.89V30.0868ZM228.149 29.0618C231.835 29.0618 233.89 27.0118 233.89 24.3588C233.89 21.6456 231.835 19.5956 228.149 19.5956C224.341 19.5956 222.407 21.6456 222.407 24.3588C222.407 27.0721 224.281 29.0618 228.149 29.0618Z" fill="#3FA9DB"/>
<path d="M151.696 23.4544V20.9221C151.696 20.9221 149.4 21.0426 149.098 23.4544H151.696Z" fill="#E35336"/>
<path d="M152.542 23.4544V20.9221C152.542 20.9221 154.839 21.0426 155.141 23.4544H152.542Z" fill="#E35336"/>
<path d="M152.542 24.2985V26.8309C152.542 26.8309 154.839 26.7103 155.141 24.2985H152.542Z" fill="#E35336"/>
<path d="M151.696 24.2985V26.8309C151.696 26.8309 149.4 26.7103 149.098 24.2985H151.696Z" fill="#E35336"/>
<path fill-rule="evenodd" clip-rule="evenodd" d="M152.119 8.13971L140.697 18.0279L152.119 11.5162L163.602 18.0279L152.119 8.13971Z" fill="#E35336"/>
<path d="M30.2788 37.925C41.4596 37.925 51.9152 39.0706 60.5576 41.0603C51.9152 37.0809 41.5201 34.7897 30.2788 34.7897C19.0376 34.7897 8.64246 37.0809 0 41C8.64246 39.0706 19.0376 37.925 30.2788 37.925Z" fill="#E35336"/>
<path d="M31.3667 29.1824V32.7397C31.3062 32.7397 31.3062 32.7397 31.3062 32.7397H30.2788C27.6196 32.7397 25.0813 32.8 22.5429 32.9809V30.4485L31.3062 29.1221L31.3667 29.1824Z" fill="#3FA9DB"/>
<path d="M37.4708 30.5088V32.9809C35.4764 32.8603 33.3611 32.8 31.3062 32.7397C31.2458 32.7397 31.2458 32.7397 31.2458 32.7397V29.1824H31.3062L31.3667 29.2426L37.4708 30.5088Z" fill="#3FA9DB"/>
<path d="M31.3667 22.3691V28.0368L22.5429 29.9662V23.6353L31.3062 22.3691H31.3667Z" fill="#3FA9DB"/>
<path d="M37.5312 23.6353V29.9662L31.3062 28.0368V22.3691H31.3667H31.4271L37.5312 23.6353Z" fill="#3FA9DB"/>
<path d="M31.3667 15.0735V21.2838L22.5429 23.2735V16.9426L31.3062 15.0735H31.3667Z" fill="#3FA9DB"/>
<path d="M37.4708 16.9426V23.2735L31.3062 21.2838V15.0735L31.3667 15.1338L33.7237 15.7971L37.4708 16.9426Z" fill="#2154A5"/>
<path d="M31.3667 7.23529V14.1088L22.5429 16.4603V9.82794L31.3062 7.29559L31.3667 7.23529Z" fill="#3FA9DB"/>
<path d="M37.5312 9.88824V16.4603L34.2676 15.2544L31.3062 14.1088V7.29559H31.3667H31.4271L37.5312 9.88824Z" fill="#2154A5"/>
<path d="M31.3667 0V6.33088L22.5429 9.34559V3.67794L31.3062 0H31.3667Z" fill="#3FA9DB"/>
<path d="M37.5312 3.67794V9.34559L31.3667 6.33088V0H31.4271L37.5312 3.67794Z" fill="#2154A5"/>
<path d="M47.6242 30.75V33.9456H47.5637C44.7232 33.5235 41.8223 33.2221 38.8004 33.0412V31.8353L47.5637 30.75H47.6242Z" fill="#3FA9DB"/>
<path d="M53.7887 31.8353V35.0309C51.7943 34.6088 49.7395 34.2471 47.6242 33.9456H47.5638V30.75H47.6242L53.7887 31.8353Z" fill="#2154A5"/>
<path d="M47.6242 25.5647V29.9059L38.8004 31.4132V26.5294L47.5637 25.5647H47.6242Z" fill="#3FA9DB"/>
<path d="M53.7887 26.5294V31.4132L47.5638 29.9059V25.5647H47.6242L53.7887 26.5294Z" fill="#2154A5"/>
<path d="M47.6242 20.0176V24.7206L38.8004 26.2279V21.4044L47.5637 20.0176H47.6242Z" fill="#3FA9DB"/>
<path d="M53.7887 21.4044V26.2279L47.5638 24.7206V20.0176H47.6242L53.7887 21.4044Z" fill="#2154A5"/>
<path d="M47.6242 13.9882V19.2338L38.8004 21.0426V15.9779L47.5637 13.9882H47.6242Z" fill="#3FA9DB"/>
<path d="M53.7887 15.9779V21.0426L47.5638 19.2338V13.9882H47.6242L53.7887 15.9779Z" fill="#2154A5"/>
<path d="M47.6242 8.44118V13.2647L38.8004 15.6162V11.275L47.5637 8.44118H47.6242Z" fill="#3FA9DB"/>
<path d="M53.8492 11.275V15.6162L47.6242 13.2647V8.44118H47.6846L53.8492 11.275Z" fill="#2154A5"/>
<path d="M15.5322 31.3529V33.6441C15.4718 33.6441 15.4718 33.6441 15.4718 33.6441C12.45 34.0059 9.48857 34.4882 6.64804 35.0309V32.3176L15.4718 31.3529H15.5322Z" fill="#3FA9DB"/>
<path d="M21.6968 32.2573V33.0412C19.6419 33.1618 17.5267 33.4029 15.5322 33.5838C15.4718 33.5838 15.4718 33.5838 15.4718 33.5838V31.3529H15.5322L21.6968 32.2573Z" fill="#2154A5"/>
<path d="M15.5322 26.7103V30.5691L6.70848 31.8956V27.5544L15.4718 26.7103H15.5322Z" fill="#3FA9DB"/>
<path d="M21.6968 27.5544V31.8956L15.4718 30.5691V26.7103H15.5323L21.6968 27.5544Z" fill="#2154A5"/>
<path d="M15.5322 21.7059V25.9265L6.70848 27.3132V22.9721L15.4718 21.7059H15.5322Z" fill="#3FA9DB"/>
<path d="M21.6968 22.9721V27.3132L15.4718 25.9265V21.7059H15.5323L21.6968 22.9721Z" fill="#2154A5"/>
<path d="M15.5322 16.3397V21.0426L6.70848 22.6706V18.1485L15.4718 16.4L15.5322 16.3397Z" fill="#3FA9DB"/>
<path d="M21.6968 18.1485V22.6706L15.4718 21.0426V16.4H15.5323L18.4332 17.1838L21.6968 18.1485Z" fill="#2154A5"/>
<path d="M15.5322 11.3956V15.7368L6.70848 17.7868V13.9279L15.4718 11.3956H15.5322Z" fill="#3FA9DB"/>
<path d="M21.7572 13.8676V17.7868L18.7958 16.8221L15.5323 15.7368V11.3956H15.5927L21.7572 13.8676Z" fill="#2154A5"/>
<path d="M18.4332 17.1838L15.4718 20.1382V21.0426H15.5323L21.6968 22.6706V18.1485L18.4332 17.1838ZM15.5323 21.7059L15.4718 25.9265H15.5323L21.6968 27.3132V23.0324L15.5323 21.7059ZM15.5323 26.7103L15.4718 30.5691H15.5323L21.6968 31.8956V27.5544L15.5323 26.7103ZM18.7958 16.8221L21.7572 17.8471V13.8676L18.7958 16.8221ZM15.5323 31.3529L15.4718 33.6441C15.4718 33.6441 15.4718 33.6441 15.5323 33.6441C17.5267 33.4029 19.642 33.2221 21.6968 33.1015V32.3176L15.5323 31.3529Z" fill="#2154A5"/>
<path d="M31.3667 29.1824L31.3062 29.1221V32.6794C31.3667 32.6794 31.3667 32.6794 31.3667 32.6794C33.4215 32.7397 35.5368 32.8 37.5312 32.9206V30.4485L31.3667 29.1824ZM31.4271 22.3691H31.3667V28.0368L37.5312 29.9662V23.6353L31.4271 22.3691Z" fill="#2154A5"/>
</g>
<defs>
<clipPath id="clip0_7_214">
<rect width="238" height="41" fill="white"/>
</clipPath>
</defs>
</svg>
