<svg width="25" height="26" viewBox="0 0 25 26" fill="none" xmlns="http://www.w3.org/2000/svg">
<path d="M9.86902 24.3802C9.26175 24.3802 8.67935 24.1309 8.24994 23.6869C7.82053 23.243 7.57929 22.641 7.57929 22.0132M16.7382 24.3802H14.4485M21.3177 7.81113C21.925 7.81113 22.5074 8.06051 22.9368 8.50441C23.3662 8.94831 23.6074 9.55037 23.6074 10.1781M23.6074 14.9122V17.2792M23.6074 22.0132C23.6074 22.641 23.3662 23.243 22.9368 23.6869C22.5074 24.1309 21.925 24.3802 21.3177 24.3802M16.7382 3.0771C16.7382 2.44933 16.497 1.84727 16.0676 1.40337C15.6382 0.959464 15.0558 0.710083 14.4485 0.710083H2.99982C2.39254 0.710083 1.81014 0.959464 1.38073 1.40337C0.951322 1.84727 0.710083 2.44933 0.710083 3.0771V14.9122C0.710083 15.5399 0.951322 16.142 1.38073 16.5859C1.81014 17.0298 2.39254 17.2792 2.99982 17.2792H6.43442C6.73806 17.2792 7.02926 17.1545 7.24396 16.9325C7.45867 16.7106 7.57929 16.4096 7.57929 16.0957V10.1781C7.57929 9.55037 7.82053 8.94831 8.24994 8.50441C8.67935 8.06051 9.26175 7.81113 9.86902 7.81113H15.5934C15.897 7.81113 16.1882 7.68644 16.4029 7.46449C16.6176 7.24254 16.7382 6.94151 16.7382 6.62762V3.0771Z" stroke="#969696" stroke-width="1.42021" stroke-linecap="round" stroke-linejoin="round"/>
</svg>
