<svg width="19" height="14" viewBox="0 0 19 14" fill="none" xmlns="http://www.w3.org/2000/svg">
<path d="M18.7765 3.12941C18.7765 2.96471 18.5294 1.64706 17.9529 1.07059C17.2118 0.247059 16.3882 0.164706 15.9765 0.164706H15.8941C13.3412 3.68146e-08 9.55294 0 9.47059 0C9.47059 0 5.6 3.68146e-08 3.04706 0.164706H2.96471C2.55294 0.164706 1.72941 0.247059 0.988235 1.07059C0.411765 1.72941 0.164706 3.04706 0.164706 3.21176C0.164706 3.29412 0 4.77647 0 6.34118V7.74118C0 9.30588 0.164706 10.7882 0.164706 10.8706C0.164706 11.0353 0.411765 12.3529 0.988235 12.9294C1.64706 13.6706 2.47059 13.7529 2.96471 13.8353C3.04706 13.8353 3.12941 13.8353 3.21176 13.8353C4.69412 14 9.22353 14 9.38824 14C9.38824 14 13.2588 14 15.8118 13.8353H15.8941C16.3059 13.7529 17.1294 13.6706 17.8706 12.9294C18.4471 12.2706 18.6941 10.9529 18.6941 10.7882C18.6941 10.7059 18.8588 9.22353 18.8588 7.65882V6.25882C18.9412 4.77647 18.7765 3.21176 18.7765 3.12941ZM12.6824 7.16471L7.74118 9.8C7.65882 9.8 7.65882 9.88235 7.57647 9.88235C7.49412 9.88235 7.41176 9.88235 7.41176 9.8C7.32941 9.71765 7.24706 9.63529 7.24706 9.47059V4.11765C7.24706 3.95294 7.32941 3.87059 7.41176 3.78824C7.49412 3.70588 7.65882 3.70588 7.82353 3.78824L12.7647 6.42353C12.9294 6.50588 13.0118 6.58824 13.0118 6.75294C13.0118 6.91765 12.8471 7.08235 12.6824 7.16471Z" fill="#3FA9DB"/>
</svg>
